<?xml version="1.0" standalone="no"?>
<!DOCTYPE svg PUBLIC "-//W3C//DTD SVG 20010904//EN"
 "http://www.w3.org/TR/2001/REC-SVG-20010904/DTD/svg10.dtd">
<svg version="1.0" xmlns="http://www.w3.org/2000/svg"
 width="25.000000pt" height="17.000000pt" viewBox="0 0 25.000000 17.000000"
 preserveAspectRatio="xMidYMid meet">

<g transform="translate(0.000000,17.000000) scale(0.100000,-0.100000)"
fill="#000000" stroke="none">
<path d="M0 85 l0 -85 125 1 c112 0 125 2 125 18 0 9 -5 22 -12 29 -9 9 -9 15
0 24 7 7 12 23 12 36 0 23 -3 24 -45 20 -42 -5 -45 -4 -45 18 0 23 -2 24 -80
24 l-80 0 0 -85z m207 -3 c-22 -24 -21 -38 1 -51 23 -14 9 -14 -22 0 l-25 12
22 28 c12 15 26 28 31 28 5 1 2 -7 -7 -17z"/>
</g>
</svg>
